<mxfile host="app.diagrams.net" modified="2024-04-19T08:54:56.459Z" agent="Mozilla/5.0 (X11; Linux x86_64; rv:109.0) Gecko/20100101 Firefox/115.0" etag="ZbZMxGSM_4ijNTf9sHRJ" version="24.2.3" type="device">
  <diagram name="Page-1" id="90a13364-a465-7bf4-72fc-28e22215d7a0">
    <mxGraphModel dx="1274" dy="711" grid="1" gridSize="10" guides="1" tooltips="1" connect="1" arrows="1" fold="1" page="1" pageScale="1.5" pageWidth="1169" pageHeight="826" background="none" math="0" shadow="0">
      <root>
        <mxCell id="0" style=";html=1;" />
        <mxCell id="1" style=";html=1;" parent="0" />
        <mxCell id="3a17f1ce550125da-1" value="Micro service flow" style="whiteSpace=wrap;html=1;shadow=1;fontSize=20;fillColor=#f5f5f5;strokeColor=#666666;strokeWidth=2;dashed=1;" parent="1" vertex="1">
          <mxGeometry x="560" y="270" width="610" height="60" as="geometry" />
        </mxCell>
        <mxCell id="fXlA2Ts_H0RBrJPiindA-3" style="edgeStyle=orthogonalEdgeStyle;rounded=0;orthogonalLoop=1;jettySize=auto;html=1;exitX=0.5;exitY=1;exitDx=0;exitDy=0;" edge="1" parent="1" source="3a17f1ce550125da-2" target="3a17f1ce550125da-10">
          <mxGeometry relative="1" as="geometry" />
        </mxCell>
        <mxCell id="3a17f1ce550125da-2" value="chirpstack-stream-consumer.mjs" style="whiteSpace=wrap;html=1;shadow=1;fontSize=18;fillColor=#fff2cc;strokeColor=#d6b656;" parent="1" vertex="1">
          <mxGeometry x="787" y="454" width="170" height="146" as="geometry" />
        </mxCell>
        <mxCell id="3a17f1ce550125da-4" value="&lt;div&gt;Chirpstack&lt;/div&gt;&lt;div&gt;gRPC API&lt;br&gt;&lt;/div&gt;" style="whiteSpace=wrap;html=1;shadow=1;fontSize=18;fillColor=#f8cecc;strokeColor=#b85450;" parent="1" vertex="1">
          <mxGeometry x="1020" y="380" width="110" height="60" as="geometry" />
        </mxCell>
        <mxCell id="3a17f1ce550125da-20" style="edgeStyle=elbowEdgeStyle;rounded=0;html=1;startArrow=none;startFill=0;jettySize=auto;orthogonalLoop=1;fontSize=18;elbow=vertical;exitX=1;exitY=0.5;exitDx=0;exitDy=0;" parent="1" source="3a17f1ce550125da-8" target="3a17f1ce550125da-2" edge="1">
          <mxGeometry relative="1" as="geometry">
            <Array as="points">
              <mxPoint x="757" y="514" />
            </Array>
          </mxGeometry>
        </mxCell>
        <mxCell id="3a17f1ce550125da-8" value="Redis stream" style="whiteSpace=wrap;html=1;shadow=1;fontSize=18;fillColor=#f8cecc;strokeColor=#b85450;" parent="1" vertex="1">
          <mxGeometry x="610" y="380" width="120" height="70" as="geometry" />
        </mxCell>
        <mxCell id="3a17f1ce550125da-10" value="MongoDB" style="whiteSpace=wrap;html=1;shadow=1;fontSize=18;fillColor=#d5e8d4;strokeColor=#82b366;" parent="1" vertex="1">
          <mxGeometry x="799.5" y="680" width="145" height="120" as="geometry" />
        </mxCell>
        <mxCell id="fXlA2Ts_H0RBrJPiindA-1" value="" style="endArrow=classic;html=1;rounded=0;exitX=0.5;exitY=1;exitDx=0;exitDy=0;" edge="1" parent="1" source="3a17f1ce550125da-4" target="3a17f1ce550125da-2">
          <mxGeometry width="50" height="50" relative="1" as="geometry">
            <mxPoint x="630" y="650" as="sourcePoint" />
            <mxPoint x="970" y="520" as="targetPoint" />
            <Array as="points">
              <mxPoint x="1070" y="520" />
              <mxPoint x="1010" y="520" />
            </Array>
          </mxGeometry>
        </mxCell>
        <mxCell id="fXlA2Ts_H0RBrJPiindA-4" value="&lt;div&gt;integration &lt;br&gt;&lt;/div&gt;&lt;div&gt;events&lt;br&gt;&lt;/div&gt;" style="text;html=1;align=center;verticalAlign=middle;whiteSpace=wrap;rounded=0;" vertex="1" parent="1">
          <mxGeometry x="680" y="520" width="60" height="30" as="geometry" />
        </mxCell>
        <mxCell id="fXlA2Ts_H0RBrJPiindA-5" value="read gateways configuration" style="text;html=1;align=center;verticalAlign=middle;whiteSpace=wrap;rounded=0;" vertex="1" parent="1">
          <mxGeometry x="1020" y="530" width="60" height="30" as="geometry" />
        </mxCell>
        <mxCell id="fXlA2Ts_H0RBrJPiindA-6" value="Write geoJSON feature to mongoDB " style="text;html=1;align=center;verticalAlign=middle;whiteSpace=wrap;rounded=0;" vertex="1" parent="1">
          <mxGeometry x="799.5" y="620" width="60" height="30" as="geometry" />
        </mxCell>
      </root>
    </mxGraphModel>
  </diagram>
</mxfile>
